<?xml version="1.0" encoding="UTF-8"?>
<!-- Generator: Adobe Illustrator 27.5.0, SVG Export Plug-In . SVG Version: 6.00 Build 0)  -->
<svg version="1.1" id="Calque_1" xmlns="http://www.w3.org/2000/svg" xmlns:xlink="http://www.w3.org/1999/xlink" x="0px" y="0px" viewBox="0 0 56.69 56.69" style="enable-background:new 0 0 56.69 56.69;" xml:space="preserve">
<style type="text/css">
	.st0{fill:#93C020;}
</style>
<g>
	<path class="st0" d="M9.91,18.69c0.03-2.41,0.99-4.39,2.69-6.05c1-0.97,2.13-1.73,3.39-2.31c2.03-0.93,4.3,0.03,5.09,2.16   c0.69,1.86,1.36,3.72,2.03,5.58c0.46,1.3,0.02,2.66-1.15,3.61c-0.29,0.23-0.59,0.45-0.92,0.62c-0.87,0.44-1.21,1.19-1.25,2.1   c-0.05,1.07,0.33,2.03,0.79,2.97c1.17,2.36,2.85,4.33,4.68,6.18c1.41,1.43,2.9,2.78,4.64,3.8c1.05,0.62,2.15,1.16,3.37,1.38   c1.11,0.2,1.97-0.19,2.6-1.1c0.24-0.35,0.43-0.73,0.64-1.1c0.09-0.16,0.16-0.33,0.24-0.5c0.69-1.35,1.86-1.75,3.26-1.13   c1.62,0.71,3.26,1.41,4.89,2.11c0.66,0.28,1.32,0.56,1.98,0.84c0.93,0.39,1.37,1.15,1.46,2.11c0.11,1.17-0.36,2.2-0.93,3.18   c-0.68,1.17-1.54,2.22-2.46,3.2c-0.88,0.94-2.01,1.34-3.24,1.54c-3.44,0.57-6.64-0.23-9.72-1.72c-2.34-1.14-4.41-2.69-6.42-4.32   c-2.35-1.91-4.55-3.98-6.57-6.24c-3.03-3.38-5.68-7.01-7.56-11.17c-0.62-1.38-1.14-2.8-1.39-4.31C9.97,19.67,9.95,19.18,9.91,18.69   z"/>
</g>
</svg>