<?xml version="1.0" encoding="UTF-8"?>
<!-- Generator: Adobe Illustrator 27.5.0, SVG Export Plug-In . SVG Version: 6.00 Build 0)  -->
<svg version="1.1" id="Calque_1" xmlns="http://www.w3.org/2000/svg" xmlns:xlink="http://www.w3.org/1999/xlink" x="0px" y="0px" viewBox="0 0 56.69 56.69" style="enable-background:new 0 0 56.69 56.69;" xml:space="preserve">
<style type="text/css">
	.st0{fill:#93C020;}
</style>
<g>
	<path class="st0" d="M29.83,4.63c0.46,0.05,0.92,0.09,1.38,0.15c1.23,0.15,2.4,0.48,3.55,0.94c1.46,0.59,2.8,1.38,4,2.4   c1.73,1.45,3.08,3.2,4.02,5.26c0.71,1.54,1.15,3.16,1.3,4.85c0.28,3.1-0.36,6-1.83,8.74c-1.11,2.07-2.09,4.21-3.13,6.32   c-2.08,4.2-4.16,8.4-6.25,12.6c-1.24,2.51-2.48,5.01-3.73,7.55c-0.06-0.1-0.11-0.18-0.15-0.27c-1.6-3.24-3.2-6.48-4.81-9.72   c-2.47-4.98-4.94-9.97-7.4-14.95c-0.53-1.08-1.08-2.15-1.56-3.25c-0.53-1.21-0.84-2.48-0.99-3.79c-0.4-3.5,0.29-6.77,2.16-9.75   c2.05-3.26,4.96-5.43,8.65-6.51c1-0.29,2.02-0.48,3.07-0.52c0.09,0,0.18-0.03,0.27-0.04C28.86,4.63,29.34,4.63,29.83,4.63z    M29.15,12.14c-4.09-0.03-7.53,3.28-7.53,7.5c0,4.26,3.46,7.49,7.47,7.51c4.07,0.03,7.57-3.29,7.55-7.54   C36.63,15.42,33.2,12.12,29.15,12.14z"/>
</g>
</svg>